<svg width="1331" height="1331" viewBox="0 0 1331 1331" fill="none" xmlns="http://www.w3.org/2000/svg">
<path d="M1044.57 963.36C1020.24 981.777 994.678 966.529 977.3 959.05L1006.96 773.301C1013.78 766.041 1021.41 768.986 1038.3 733.191C1047.14 714.46 1060.15 690.66 1074.85 697.145C1081.15 699.92 1083.17 706.219 1094.73 727.106C1114.46 762.779 1104.54 790.019 1098.69 798.378C1102.21 804.977 1107.81 830.712 1104.57 848.721C1101.22 867.387 1096.46 894.709 1086.69 910.626C1081.34 919.36 1073.96 927.324 1069.28 936.439C1063.39 947.919 1056.94 953.999 1044.57 963.36Z" fill="#BF8F7D"/>
<path d="M1068.52 829.488C1068.02 789.484 1042.96 779.119 1025.94 778.632C1022 778.519 1018.76 781.499 1018.21 785.402C1014.39 812.888 1028.29 829.488 1042.18 829.488C1053.21 829.488 1049.75 855.311 1045.98 871.241C1045.46 873.456 1046.53 875.863 1048.79 876.098C1057.23 876.974 1069.01 868.699 1068.52 829.488Z" fill="#B5816E"/>
<path d="M1027.19 947.536C1014.87 948.944 1004.75 941.963 1001.23 938.297C999.91 935.804 998.062 930.73 1001.23 930.378C1005.19 929.938 1009.59 934.338 1013.99 938.297C1018.39 942.257 1027.19 936.098 1033.79 940.497C1039.06 944.016 1031.59 946.656 1027.19 947.536Z" fill="#B5816E"/>
<path d="M1078 923.459C1090.25 913.489 1111.91 889.508 1115.18 824.658C1118.66 755.453 1118.89 714.349 1091.11 683.129C1081.2 671.994 1062.23 670.616 1057.23 670.616C1037.71 670.616 1020.4 697.14 1020.93 711.923C1021.46 726.705 1017.3 740.084 1014.22 745.584L1006.96 773.301C1013.78 766.041 1021.41 768.986 1038.3 733.191C1047.14 714.46 1060.15 690.66 1074.85 697.145C1081.15 699.92 1083.17 706.22 1094.73 727.106C1114.46 762.779 1104.54 790.019 1098.69 798.378C1102.21 804.977 1107.81 830.712 1104.57 848.721C1100.14 873.398 1091.5 907.049 1078 923.459Z" fill="#C48167"/>
<path d="M204.01 751.242C213.696 729.544 213.722 669.129 220.732 678.643C229.337 685.097 233.209 697.76 237.563 724.005C242.823 755.71 239.035 789.976 243.069 806.182C250.986 838.02 267.831 912.937 267.831 967.32C234.221 960.344 227.016 942.492 230.521 910.309C202.378 857.694 199.976 760.278 204.01 751.242Z" fill="#C38067"/>
<path d="M208.496 758.584C217.678 738.015 214.494 677.781 221.14 686.8C229.297 692.918 234.958 703.93 239.086 728.81C244.072 758.866 240.481 791.349 244.304 806.712C251.81 836.893 266.82 910.145 266.82 961.699C235.808 958.436 234.958 936.412 234.958 906.23C209.893 868.707 204.672 767.149 208.496 758.584Z" fill="#BF8F7D"/>
<path d="M230.803 869.81C220.509 830.056 223.513 807.992 227.823 798.507C228.679 796.624 230.815 797.368 230.856 799.436C231.847 850.254 246.375 877.038 248.476 881.502C250.216 885.2 246.301 888.028 246.301 888.028C246.301 888.028 236.404 896.185 237.056 890.747C237.709 885.308 232.24 875.363 230.803 869.81Z" fill="#B5816E"/>
<path d="M282.474 1039.49C251.165 932.149 239.115 797.988 240.046 733.693L217.683 680.693V563.284C219.546 537.193 226.628 475.507 240.046 437.489C256.819 389.967 276.387 348.035 318.319 261.377C360.251 174.718 407.774 211.059 539.16 174.718C670.546 138.377 645.387 174.718 720.865 174.718C796.342 174.718 846.66 197.082 941.705 292.127C1036.75 387.171 972.455 401.149 994.819 485.012C1017.18 568.875 1006 683.488 994.819 856.805C985.874 995.459 927.728 1112.12 899.774 1153.12C717.854 1357.39 577.911 1329.75 577.911 1329.75C399.958 1329.75 312.022 1140.8 282.474 1039.49Z" fill="#BF8F7D"/>
<path d="M557.769 975.045C489.431 957.961 432.638 977.181 416.977 988.926C428.367 1013.13 444.989 1055.59 466.674 1051.02C489.922 1046.13 548.616 1057.95 578.837 1057.95C604.307 1057.95 719.55 1015.54 735.456 1015.54C747.434 1015.54 777.059 1019.21 732.886 988.926C681.279 953.548 594.074 965.791 557.769 975.045Z" fill="#1E1E1E"/>
<path d="M473.2 1009.83C462.432 1013.42 453.758 1011.32 450.767 1009.83L433.181 1010.38C430.995 1010.45 429.049 1009 428.482 1006.89L425.668 996.38L412.489 974.404L455.503 944.934L502.893 949.219L542.129 958.028L605.992 941.405C631.2 943.17 676.448 952.932 682.842 953.134C690.835 953.386 737.986 983.171 738.238 985.944C738.44 988.162 743.028 992.663 738.238 1007.99L698.851 1019.27C698.851 1019.27 693.716 1023.41 689.608 1023.89C685.5 1024.37 677.476 1024.66 674.009 1024.66C670.737 1024.66 659.246 1021.51 653.886 1016.38L652.923 1022.25H622.882C597.27 1028.99 575.012 1024.75 567.824 1021.65C542.129 1022.25 536.189 1021.41 523.643 1014.43C511.802 1016.61 498.079 1014.45 495.224 1012.27C490.535 1014.61 482.988 1016.35 473.2 1009.83Z" fill="#F0F0F0"/>
<path fill-rule="evenodd" clip-rule="evenodd" d="M390.403 981.277C405.902 956.533 459.251 915.448 548.655 949.055C604.532 919.282 720.773 947.832 760.336 984.947C767.188 991.147 771.077 1001.4 772.164 1005.75C765.774 1021.65 722.54 1064.41 693.039 1086.91C653.476 1117.09 588.218 1128.51 567.009 1119.95C550.014 1124.3 521.547 1121.89 505.918 1111.81C481.8 1096.25 463.501 1081.94 441.386 1057.55C417.323 1031 390.403 981.277 390.403 981.277ZM557.769 975.045C489.431 957.961 432.638 977.181 416.977 988.926C418.172 991.465 419.424 994.204 420.734 997.069C431.91 1021.52 447.263 1055.11 466.674 1051.02C480.541 1048.1 507.017 1051.13 532.54 1054.05C549.809 1056.03 566.641 1057.95 578.837 1057.95C593.064 1057.95 635.301 1044.72 672.59 1033.04C702.057 1023.8 728.435 1015.54 735.456 1015.54C736.552 1015.54 737.795 1015.57 739.116 1015.6C752.236 1015.92 773.018 1016.44 732.886 988.926C681.279 953.548 594.074 965.791 557.769 975.045Z" fill="#BB7E7E"/>
<path fill-rule="evenodd" clip-rule="evenodd" d="M390.403 981.277C405.902 956.533 459.251 915.448 548.655 949.055C604.532 919.282 720.773 947.832 760.336 984.947C767.188 991.147 771.077 1001.4 772.164 1005.75C765.774 1021.65 722.54 1064.41 693.039 1086.91C653.476 1117.09 588.218 1128.51 567.009 1119.95C550.014 1124.3 521.547 1121.89 505.918 1111.81C481.8 1096.25 463.501 1081.94 441.386 1057.55C417.323 1031 390.403 981.277 390.403 981.277ZM557.769 975.045C489.431 957.961 432.638 977.181 416.977 988.926C418.172 991.465 419.424 994.204 420.734 997.069C431.91 1021.52 447.263 1055.11 466.674 1051.02C480.541 1048.1 507.017 1051.13 532.54 1054.05C549.809 1056.03 566.641 1057.95 578.837 1057.95C593.064 1057.95 635.301 1044.72 672.59 1033.04C702.057 1023.8 728.435 1015.54 735.456 1015.54C736.552 1015.54 737.795 1015.57 739.116 1015.6C752.236 1015.92 773.018 1016.44 732.886 988.926C681.279 953.548 594.074 965.791 557.769 975.045Z" fill="#BB7E7E"/>
<path d="M547.569 955.731C540.608 953.773 534.336 954.915 532.071 955.731C536.856 958.994 544.397 959.266 547.569 958.994C553.877 959.211 559.986 956.909 562.252 955.731C556.379 953.121 550.016 954.644 547.569 955.731Z" fill="#D88989"/>
<path d="M568.762 1100.2C557.148 1097.38 543.686 1099.02 538.406 1100.2C544.742 1105.83 561.283 1106.06 568.762 1105.48C581.081 1107.59 592.959 1102.84 597.359 1100.2C590.32 1097.03 575.362 1098.88 568.762 1100.2Z" fill="#D88A8A"/>
<path d="M501.831 858.552C474.386 867.343 463.88 865.627 449.3 851.905C451.587 847.902 456.804 839.426 459.377 837.539C461.95 835.652 486.894 841.613 499.044 844.829L501.831 858.552Z" fill="#B37575"/>
<path d="M653.502 861.451C626.057 870.242 615.551 868.526 600.971 854.804C603.898 851.681 603.251 851.584 608.764 847.514C621.435 838.158 641.182 840.82 648.431 854.804C650.948 859.659 653.502 861.451 653.502 861.451Z" fill="#B37575"/>
<path d="M458.404 744.156C507.632 712.956 528.672 666.147 529.892 605.228C530.271 586.305 527.445 572.191 524.182 557.1L556.882 552.202C563.784 579.166 556.882 659.133 556.882 659.133C556.882 659.133 556.092 689.225 515.306 738.984C474.52 788.743 488.698 816.908 502.973 823.434C513.426 828.212 530.59 820.112 549.062 821.394C578.428 823.434 588.353 846.41 597.19 861.773C596.51 864.356 587.727 874.534 571.086 881.529C552.607 889.297 538.974 886.97 527.847 882.54C516.72 878.111 500.128 851.832 479.67 846.553C463.304 842.329 447.497 851.731 441.639 856.96C401.535 834.401 420.633 781.677 443.005 756.153C447.316 751.235 452.88 747.657 458.404 744.156Z" fill="#CA9C8B"/>
<path d="M323.909 415.126C270.796 487.807 270.796 445.876 242.841 549.307C232.114 588.998 241.593 642.632 242.841 689.079C244.195 739.462 237.993 782.132 242.841 809.283C245.139 828.581 248.587 857.227 250.939 876.003C252.113 882.646 252.963 888.24 253.312 892.088C254.02 899.866 252.836 891.144 250.939 876.003C246.799 852.571 238.63 816.082 234.174 797.058C225.595 740.304 215.035 690.59 206.454 671.672C177.345 606.851 158.62 507.398 152.896 465.774C169.482 444.94 155.199 436.373 145.985 434.694C147.713 220.814 277.29 116.907 298.023 80.6256C318.755 44.3441 377.023 37.4333 429.328 11.5179C481.632 -14.3974 579.638 11.5179 590.004 11.5179C600.37 11.5179 655.656 20.1564 717.854 11.5179C780.051 2.8795 766.229 42.6165 840.52 49.5272C899.953 55.0558 890.624 85.2328 878.53 99.6302H933.186C983.514 111.959 990.728 157.187 1020.15 199.836C1047.25 239.112 1059.75 263.265 1078.94 306.953C1105.01 366.288 1127.06 424.198 1127.06 465.774V648.574C1127.06 706.648 1114.52 742.944 1112.55 733.705C1110.96 726.314 1103.97 709.948 1100.67 702.688C1089.45 673.651 1067.04 673.198 1067.04 673.198C1056.48 667.39 1043.47 678.051 1038.63 684.87C1028.6 688.038 1023.14 711.134 1021.16 722.352C1019.24 736.211 1014.39 766.174 1014.39 774.621V826.056C1014.39 859.394 989.546 929.772 978.264 961.738L978.056 962.327C978.056 962.327 989.784 911.766 992.172 877.378C993.497 858.299 997.044 832.544 997.233 831.18C997.093 832.169 995.149 845.172 997.614 784.124V689.079C1005.07 642.488 999.028 525.094 967.36 465.774C933.186 401.761 930.391 352.451 933.186 344.997C923.868 328.224 880.624 280.945 824.715 280.945C754.828 280.945 690.437 255.51 690.437 255.51L690.131 256.069C646.704 335.393 620.242 383.728 536.826 370.707C630.227 358.879 635.989 259.039 635.989 259.039C535.352 275.812 410.568 222.241 449.705 241.809C481.014 257.463 485.114 285.604 483.25 297.717C474.305 257.463 431.068 258.581 410.568 264.172C453.059 313.372 412.432 403.944 377.023 434.694C419.514 378.785 394.728 308.899 377.023 280.945C377.023 301.445 366.4 356.981 323.909 415.126Z" fill="black"/>
<path d="M189.382 583.17C181.552 557.543 166.318 501.805 168.027 483.867C169.735 465.928 176.602 462.73 183.008 467.001C180.873 447.069 179.986 416.169 168.027 423.003C165.891 388.122 167.172 314.73 189.382 300.209C201.341 271.165 215.009 250.379 220.348 243.616C213.585 256.074 199.847 286.328 198.992 307.683C209.314 274.582 248.548 190.223 292.913 172.074C256.11 192.24 206.894 280.134 212.874 315.158C222.128 284.192 273.251 204.591 315.852 196.777C285.945 207.783 237.162 269.72 227.895 315.434C230.997 305.925 240.847 289.746 265.195 269.243C256.297 279.565 238.927 306.188 240.636 330.106C252.738 298.429 318.373 199.298 389.458 185.434C331.985 209.381 265.195 296.151 265.195 348.259C279.076 327.615 290.694 313.975 319.652 322.632C306.483 320.496 278.649 325.408 272.67 362.14C299.72 360.004 353.821 349.113 353.821 322.632C356.944 345.769 317.089 382.214 294.025 377.089C304.352 380.93 328.184 384.28 340.897 366.956C338.924 374.59 334.503 391.486 322.289 392.732C313.449 416.481 289.969 446.162 268.043 451.056C240.636 457.174 212.166 564.034 211.758 566.889C211.432 569.173 209.991 578.695 209.311 583.17C206.864 591.203 203.927 613.63 211.758 639.081L189.382 583.17Z" fill="#868686"/>
<path d="M645.313 571.362C579.32 539.686 524.545 558.164 505.408 571.362L498.238 556.109C519.337 542.91 579.725 524.432 652.483 556.109L645.313 571.362Z" fill="#DAB700"/>
<path fill-rule="evenodd" clip-rule="evenodd" d="M499.752 556.562L505.89 569.62C526.196 556.356 580.091 539.225 644.75 569.79L650.899 556.708C580.021 526.295 521.209 543.668 499.752 556.562ZM497.613 555.11C519.024 541.717 579.821 523.189 652.953 555.029L654.064 555.513L645.873 572.938L644.803 572.424C579.217 540.943 524.891 559.356 506.076 572.332L504.933 573.121L496.727 555.664L497.613 555.11Z" fill="#DAB700"/>
<path d="M1014.26 645.079C1007.08 643.774 973.133 588.37 973.133 588.37L963.671 598C963.671 598 1007.87 657.179 1014.26 659.762C1017.25 655.412 1014.26 645.079 1014.26 645.079Z" fill="url(#paint0_linear)"/>
<path d="M942.743 598H963.671L973.133 588.37C972.494 582.603 971.557 575.794 970.438 572.625H940.541L942.743 598Z" fill="url(#paint1_linear)"/>
<path d="M448.626 517.508C297.656 492.461 236.751 527.235 230.643 550.557C209.485 631.344 217.134 710.973 262.552 752.843C304.788 791.779 379.36 782.068 403.413 782.068C443.538 782.068 584.074 643.711 478.422 532.63C470.566 524.37 459.872 519.373 448.626 517.508Z" fill="url(#paint2_linear)" fill-opacity="0.5"/>
<path fill-rule="evenodd" clip-rule="evenodd" d="M246.718 533.002C237.917 539.063 233.211 545.401 231.783 550.856C210.659 631.51 218.424 710.56 263.351 751.977C284.186 771.184 313.075 778.453 339.908 780.883C359.344 782.644 377.507 781.861 390.686 781.293C395.727 781.076 400.039 780.89 403.413 780.89C408.14 780.89 414.518 778.835 421.934 774.867C429.319 770.916 437.617 765.131 446.152 757.82C463.221 743.196 481.156 722.537 494.554 698.432C507.953 674.326 516.784 646.831 515.739 618.511C514.695 590.217 503.792 561.013 477.569 533.442C469.917 525.397 459.471 520.501 448.433 518.67C373.048 506.163 320.249 508.61 285.59 517.039C268.26 521.253 255.498 526.955 246.718 533.002ZM285.033 514.75C320.096 506.223 373.234 503.806 448.819 516.346C460.273 518.246 471.214 523.342 479.276 531.818C505.878 559.788 517.027 589.533 518.093 618.424C519.159 647.287 510.158 675.208 496.613 699.577C483.068 723.946 464.949 744.819 447.684 759.609C439.052 767.004 430.613 772.895 423.045 776.945C415.508 780.977 408.718 783.246 403.413 783.246C400.172 783.246 395.957 783.427 390.993 783.641C377.798 784.209 359.304 785.006 339.695 783.229C312.67 780.781 283.155 773.438 261.754 753.709C215.844 711.385 208.31 631.179 229.504 550.259C231.129 544.052 236.327 537.298 245.382 531.062C254.457 524.812 267.502 519.013 285.033 514.75Z" fill="#DAB700"/>
<path d="M706.716 508.956C858.353 484.271 928.255 524.281 934.364 547.605C955.523 628.392 948.766 705.693 903.347 747.563C861.111 786.499 780.055 774.149 756.002 774.149C715.879 774.149 571.555 635.184 676.926 524.061C684.77 515.789 695.464 510.787 706.716 508.956Z" fill="url(#paint3_linear)" fill-opacity="0.5"/>
<path fill-rule="evenodd" clip-rule="evenodd" d="M916.879 529.229C926.565 535.81 931.803 542.477 933.225 547.903C954.351 628.566 947.472 705.285 902.549 746.697C881.737 765.883 851.258 772.507 822.783 774.282C808.569 775.167 794.91 774.842 783.288 774.294C778.932 774.088 774.846 773.85 771.122 773.633C764.952 773.273 759.773 772.971 756.002 772.971C751.275 772.971 744.837 770.906 737.314 766.92C729.824 762.951 721.375 757.14 712.661 749.799C695.23 735.115 676.813 714.376 662.925 690.19C649.036 666.002 639.71 638.425 640.364 610.044C641.017 581.693 651.632 552.448 677.781 524.871C685.419 516.816 695.864 511.915 706.905 510.118C782.603 497.796 837.815 501.636 874.812 511.416C893.313 516.307 907.232 522.676 916.879 529.229ZM875.414 509.138C838.023 499.254 782.466 495.431 706.526 507.793C695.064 509.659 684.121 514.761 676.072 523.25C649.536 551.235 638.676 581.032 638.009 609.99C637.342 638.918 646.846 666.919 660.882 691.363C674.919 715.808 693.521 736.755 711.143 751.6C719.954 759.023 728.541 764.937 736.211 769.002C743.85 773.049 750.699 775.327 756.002 775.327C759.711 775.327 764.768 775.622 770.868 775.978C774.603 776.196 778.73 776.437 783.177 776.647C794.838 777.197 808.593 777.526 822.929 776.633C851.555 774.849 882.721 768.18 904.146 748.429C950.06 706.102 956.695 628.218 935.503 547.306C933.87 541.071 928.08 533.991 918.203 527.281C908.286 520.544 894.107 514.08 875.414 509.138Z" fill="#DAB700"/>
<defs>
<linearGradient id="paint0_linear" x1="940.541" y1="572.625" x2="1023.41" y2="663.552" gradientUnits="userSpaceOnUse">
<stop stop-color="#DAB700"/>
<stop offset="0.886788" stop-color="#DAB700" stop-opacity="0.21"/>
<stop offset="1" stop-color="#DAB700" stop-opacity="0"/>
</linearGradient>
<linearGradient id="paint1_linear" x1="940.541" y1="572.625" x2="1023.41" y2="663.552" gradientUnits="userSpaceOnUse">
<stop stop-color="#DAB700"/>
<stop offset="0.886788" stop-color="#DAB700" stop-opacity="0.21"/>
<stop offset="1" stop-color="#DAB700" stop-opacity="0"/>
</linearGradient>
<linearGradient id="paint2_linear" x1="368.199" y1="508.822" x2="368.199" y2="783.143" gradientUnits="userSpaceOnUse">
<stop stop-color="#00FF0A"/>
<stop offset="1" stop-color="#001AFF"/>
</linearGradient>
<linearGradient id="paint3_linear" x1="792.508" y1="501.191" x2="792.508" y2="776.01" gradientUnits="userSpaceOnUse">
<stop stop-color="#00FF0A"/>
<stop offset="1" stop-color="#001AFF"/>
</linearGradient>
</defs>
</svg>
